<?xml version="1.0" encoding="UTF-8" standalone="no"?>
<svg
   xmlns:svg="http://www.w3.org/2000/svg"
   xmlns="http://www.w3.org/2000/svg"
   width="800.0"
   height="240.0"

>
    <g transform="scale(74.5333199528569, -74.5333199528569)   translate(4.9014307676660955,-1.4566602339712804)" stroke-width="0.013416818151029773"  fill="none">
       <!-- hidden lines -->
       <g  stroke="rgb(160,160,160)" fill="none" stroke-dasharray="0.013416818151029773,0.013416818151029773" >
			<path d="M-1.6328749565132101,-1.188323870950685 L-1.5668048715675889,-1.2267033962346747 " />
			<path d="M-1.6328749565132912,-1.18832387095048 L-1.6542097549593318,-1.1762493115126993 " />
			<path d="M1.6328749565132101,-0.9559358453561274 L1.6989450414588314,-0.9943153706401171 " />
			<path d="M1.6542097549593366,1.1762493115126964 L1.717915867432324,1.1362430594569675 L1.7787572119995374,1.091913239147262 L1.836486599788496,1.0434399557140235 L1.8908694853206593,0.9910201485306755 L1.9416849194330437,0.9348667910797317 L1.9887264469601322,0.8752080256748288 L2.0318029455289417,0.8122862365541673 L2.0707394020593473,0.7463570651112414 L2.10537762381487,0.6776883712638173 L2.1355768811150364,0.6065591451809589 L2.1612144790980734,0.5332583737895812 L2.1821862562109517,0.4580838666657394 L2.1984070074014923,0.3813410460808748 L2.2098108302931765,0.3033417061188673 L2.2163513929361986,0.22440274590541204 L2.218002122046938,0.14484488209640745 L2.214756310971053,0.0649913458563164 L2.2066271469315715,-0.014833430379530041 L2.1936476574512653,-0.09430513102320141 L2.175870576166986,-0.17310087497770704 L2.1533681285811435,-0.250900527452422 L2.12623173862078,-0.32738800062069695 L2.0945716571964423,-0.402252537835291 L2.0585165142699706,-0.47518997618405123 L2.0182127962510674,-0.5459039822562787 L1.9738242508459138,-0.6141072560990566 L1.9255312217758367,-0.6795226984720473 L1.8735299160689585,-0.7418845366583907 L1.8180316069017124,-0.80093940425771 L1.7592617752289537,-0.8564473705741897 L1.6974591936900838,-0.9081829154174867 L1.632874956513147,-0.9559358453560107 " />
			<path d="M1.6328749565132101,-0.9559358453561274 L-1.6328749565132106,-1.188323870950685 " />
			<path d="M1.4960154948401376,-0.3537283838276441 L1.497186827443602,-0.33543400652663125 L1.5006800591225595,-0.3172972615221416 L1.5064332596379257,-0.29963968859669476 L1.5143444325817426,-0.2827743324645915 L1.52427332363455,-0.26700019291556754 L1.5360439070834104,-0.2525969239558282 L1.549447506518012,-0.23981987592347126 L1.564246494379158,-0.22889556847483822 L1.5801785047716894,-0.2200176746995789 L1.5969610848544016,-0.21334358756059946 L1.6142967023441541,-0.2089916295312354 L1.6318780203579444,-0.20703895489898153 L1.6493933460771781,-0.20752018192507668 L1.6665321566367481,-0.2104267791098898 L1.682990604272427,-0.21570721644478674 L1.6984769031278164,-0.22326787896898692 " />
			<path d="M1.6984769031278175,-0.2232678789689875 L1.7143933507763467,-0.23432867422712772 L1.728376242617088,-0.2478557324147041 " />
			<path d="M1.5940051717912935,-0.47917459313541866 L1.575327563307457,-0.4737294568869416 L1.5578344263349435,-0.4653829212971459 " />
			<path d="M1.557834426334943,-0.46538292129714565 L1.5443121066198133,-0.45624025522444744 L1.5321234318273422,-0.4453174323737643 L1.5214622792763963,-0.43278819498080284 L1.5124982289834912,-0.41885183747211496 L1.5053738662638114,-0.40373003641833327 L1.5002025137193828,-0.38766332446920526 L1.497066428690179,-0.3709072643572461 L1.4960154948401376,-0.3537283838276453 " />
			<path d="M-1.7602958346226227,-0.585444767729732 L-1.7591245020191584,-0.5671503904287191 L-1.7556312703402008,-0.5490136454242294 L-1.7498780698248346,-0.5313560724987826 L-1.7419668968810178,-0.5144907163666793 L-1.7320380058282103,-0.49871657681765535 L-1.72026742237935,-0.48431330785791604 L-1.7068638229447484,-0.4715362598255591 L-1.6920648350836023,-0.46061195237692604 L-1.676132824691071,-0.4517340586016667 L-1.6593502446083588,-0.4450599714626873 L-1.6420146271186062,-0.4407080134333232 L-1.624433309104816,-0.4387553388010693 L-1.6069179833855822,-0.4392365658271645 L-1.5897791728260122,-0.44214316301197765 L-1.5733207251903334,-0.44742360034687456 L-1.557834426334944,-0.45498426287107474 " />
			<path d="M-1.5578344263349428,-0.4549842628710753 L-1.5419179786864137,-0.46604505812921554 L-1.5279350868456723,-0.47957211631679186 " />
			<path d="M-1.6623061576714668,-0.7108909770375065 L-1.6809837661553033,-0.7054458407890294 L-1.6984769031278169,-0.6970993051992337 " />
			<path d="M-1.6984769031278173,-0.6970993051992335 L-1.711999222842947,-0.6879566391265353 L-1.7241878976354181,-0.6770338162758521 L-1.734849050186364,-0.6645045788828906 L-1.7438131004792692,-0.6505682213742028 L-1.750937463198949,-0.6354464203204211 L-1.7561088157433775,-0.6193797083712931 L-1.7592449007725814,-0.6026236482593339 L-1.7602958346226227,-0.5854447677297332 " />
			<path d="M1.4960154948401376,0.5666388003405768 L1.497186827443602,0.5849331776415897 L1.5006800591225595,0.6030699226460794 L1.5064332596379257,0.6207274955715262 L1.5143444325817426,0.6375928517036294 L1.52427332363455,0.6533669912526534 L1.5360439070834104,0.6677702602123927 L1.549447506518012,0.6805473082447497 L1.564246494379158,0.6914716156933828 L1.5801785047716894,0.700349509468642 L1.5969610848544016,0.7070235966076215 L1.6142967023441541,0.7113755546369855 L1.6318780203579444,0.7133282292692394 L1.6493933460771781,0.7128470022431442 L1.6665321566367481,0.7099404050583311 L1.682990604272427,0.7046599677234342 L1.6984769031278164,0.697099305199234 " />
			<path d="M1.6984769031278175,0.6970993051992335 L1.7143933507763467,0.6860385099410933 L1.728376242617088,0.6725114517535169 " />
			<path d="M1.5940051717912935,0.4411925910328023 L1.575327563307457,0.4466377272812793 L1.5578344263349435,0.454984262871075 " />
			<path d="M1.557834426334943,0.4549842628710753 L1.5443121066198133,0.4641269289437735 L1.5321234318273422,0.47504975179445663 L1.5214622792763963,0.4875789891874181 L1.5124982289834912,0.501515346696106 L1.5053738662638114,0.5166371477498877 L1.5002025137193828,0.5327038596990157 L1.497066428690179,0.5494599198109749 L1.4960154948401376,0.5666388003405756 " />
			<path d="M-1.7602958346226227,0.334922416438489 L-1.7591245020191584,0.3532167937395019 L-1.7556312703402008,0.3713535387439915 L-1.7498780698248346,0.38901111166943836 L-1.7419668968810178,0.40587646780154163 L-1.7320380058282103,0.4216506073505656 L-1.72026742237935,0.4360538763103049 L-1.7068638229447484,0.44883092434266186 L-1.6920648350836023,0.4597552317912949 L-1.676132824691071,0.46863312556655423 L-1.6593502446083588,0.47530721270553367 L-1.6420146271186062,0.4796591707348977 L-1.624433309104816,0.4816118453671516 L-1.6069179833855822,0.4811306183410564 L-1.5897791728260122,0.4782240211562433 L-1.5733207251903334,0.4729435838213464 L-1.557834426334944,0.4653829212971462 " />
			<path d="M-1.5578344263349428,0.46538292129714565 L-1.5419179786864137,0.4543221260390054 L-1.5279350868456723,0.440795067851429 " />
			<path d="M-1.662306157671467,0.20947620713071452 L-1.6809837661553033,0.21492134337919153 L-1.6984769031278169,0.2232678789689872 " />
			<path d="M-1.6984769031278173,0.22326787896898748 L-1.711999222842947,0.23241054504168568 L-1.7241878976354181,0.24333336789236884 L-1.734849050186364,0.2558626052853303 L-1.7438131004792692,0.26979896279401816 L-1.750937463198949,0.28492076384779985 L-1.7561088157433775,0.30098747579692786 L-1.7592449007725814,0.31774353590888704 L-1.7602958346226227,0.3349224164384878 " />
			<path d="M1.7645469880734386,-0.26164740425297717 L1.6984769031278173,-0.22326787896898748 " />
			<path d="M1.6239045112805643,-0.5037624465811352 L1.557834426334943,-0.46538292129714554 " />
			<path d="M-1.4917643413893218,-0.493363788155065 L-1.557834426334943,-0.4549842628710753 " />
			<path d="M-1.632406818182196,-0.735478830483223 L-1.6984769031278173,-0.6970993051992334 " />
			<path d="M1.7645469880734386,0.6587197799152437 L1.6984769031278173,0.6970993051992334 " />
			<path d="M1.6239045112805643,0.4166047375870856 L1.557834426334943,0.4549842628710753 " />
			<path d="M-1.4917643413893218,0.42700339601315584 L-1.557834426334943,0.46538292129714554 " />
			<path d="M-1.632406818182196,0.1848883536849978 L-1.6984769031278173,0.2232678789689875 " />

       </g>

       <!-- solid lines -->
       <g  stroke="rgb(0,0,0)" fill="none">
			<path d="M-1.6328749565132101,0.9559358453561274 L-1.5668048715675889,0.9175563200721377 " />
			<path d="M-1.5668048715675889,0.9175563200721377 L1.6989450414588319,1.1499443456666953 " />
			<path d="M1.6328749565132101,1.188323870950685 L1.6989450414588314,1.1499443456666951 " />
			<path d="M-1.6328749565132101,0.9559358453561274 L1.6328749565132106,1.188323870950685 " />
			<path d="M-1.56680487156767,-1.2267033962344696 L-1.5881396700137107,-1.2146288367966889 " />
			<path d="M-1.5881396700137151,-1.2146288367966862 L-1.6518457824867028,-1.1746225847409573 L-1.712687127053916,-1.130292764431252 L-1.7704165148428743,-1.081819480998014 L-1.8247994003750376,-1.0293996738146656 L-1.8756148344874222,-0.9732463163637219 L-1.922656362014511,-0.9135875509588189 L-1.9657328605833204,-0.8506657618381573 L-2.0046693171137258,-0.7847365903952315 L-2.039307538869248,-0.7160678965478078 L-2.069506796169415,-0.6449386704649492 L-2.0951443941524523,-0.5716378990735713 L-2.1161161712653307,-0.49646339194972944 L-2.132336922455871,-0.41972057136486457 L-2.143740745347555,-0.34172123140285693 L-2.1502813079905776,-0.26278227118940245 L-2.151932037101317,-0.1832244073803978 L-2.148686226025432,-0.10337087114030631 L-2.1405570619859504,-0.023546094904460926 L-2.127577572505644,0.05592560573921061 L-2.109800491221365,0.13472134969371646 L-2.0872980436355224,0.21252100216843145 L-2.060161653675159,0.2890084753367067 L-2.0285015722508213,0.3638730125513011 L-1.9924464293243496,0.4368104509000613 L-1.9521427113054461,0.507524456972289 L-1.9077541659002923,0.5757277308150671 L-1.8594611368302156,0.6411431731880569 L-1.8074598311233374,0.7035050113744006 L-1.7519615219560913,0.7625598789737201 L-1.6931916902833333,0.8180678452901988 L-1.6313891087444632,0.8698033901334963 L-1.566804871567531,0.9175563200720174 " />
			<path d="M-1.6542097549593364,-1.1762493115126966 L-1.7179158674323238,-1.1362430594569677 L-1.7787572119995372,-1.0919132391472623 L-1.8364865997884956,-1.0434399557140244 L-1.8908694853206591,-0.9910201485306759 L-1.9416849194330434,-0.9348667910797323 L-1.9887264469601322,-0.8752080256748292 L-2.0318029455289417,-0.8122862365541677 L-2.0707394020593473,-0.7463570651112418 L-2.1053776238148694,-0.6776883712638181 L-2.1355768811150364,-0.6065591451809595 L-2.1612144790980734,-0.5332583737895816 L-2.1821862562109517,-0.45808386666573975 L-2.1984070074014923,-0.3813410460808749 L-2.2098108302931765,-0.30334170611886724 L-2.2163513929361986,-0.22440274590541276 L-2.218002122046938,-0.1448448820964081 L-2.214756310971053,-0.06499134585631662 L-2.206627146931572,0.014833430379528764 L-2.1936476574512653,0.0943051310232003 L-2.175870576166986,0.17310087497770615 L-2.1533681285811435,0.25090052745242114 L-2.1262317386207803,0.3273880006206964 L-2.0945716571964423,0.4022525378352908 L-2.0585165142699706,0.475189976184051 L-2.0182127962510674,0.5459039822562787 L-1.9738242508459138,0.6141072560990568 L-1.9255312217758371,0.6795226984720466 L-1.8735299160689585,0.7418845366583903 L-1.8180316069017126,0.8009394042577098 L-1.7592617752289545,0.8564473705741885 L-1.6974591936900845,0.908182915417486 L-1.632874956513152,0.9559358453560071 " />
			<path d="M1.698945041458913,1.14994434566649 L1.7202798399049484,1.1378697862287122 " />
			<path d="M1.720279839904958,1.1378697862287068 L1.7839859523779453,1.0978635341729779 L1.8448272969451587,1.0535337138632723 L1.9025566847341173,1.0050604304300337 L1.9569395702662806,0.9526406232466859 L2.007755004378665,0.896487265795742 L2.0547965319057537,0.8368285003908391 L2.097873030474563,0.7739067112701776 L2.1368094870049683,0.7079775398272518 L2.171447708760491,0.6393088459798276 L2.2016469660606575,0.5681796198969692 L2.227284564043695,0.49487884850559144 L2.248256341156573,0.4197043413817497 L2.2644770923471134,0.34296152079688513 L2.2758809152387975,0.2649621808348776 L2.28242147788182,0.18602322062142235 L2.284072206992559,0.10646535681241777 L2.2808263959166744,0.026611820572326708 L2.272697231877193,-0.05321295566351973 L2.2597177423968864,-0.13268465630719112 L2.241940661112607,-0.21148040026169673 L2.2194382135267645,-0.28928005273641166 L2.1923018235664014,-0.36576752590468664 L2.160641742142064,-0.4406320631192807 L2.124586599215592,-0.5135695014680409 L2.084282881196689,-0.5842835075402684 L2.0398943357915353,-0.6524867813830463 L1.991601306721458,-0.717902223756037 L1.9396000010145795,-0.7802640619423804 L1.884101691847334,-0.8393189295416997 L1.825331860174575,-0.8948268958581794 L1.763529278635705,-0.9465624407014764 L1.6989450414587683,-0.9943153706400004 " />
			<path d="M1.6328749565132914,1.1883238709504795 L1.6542097549593273,1.1762493115127017 " />
			<path d="M1.728376242617088,-0.24785573241470416 L1.7407394284565965,-0.26454961157779805 L1.7502666458039804,-0.2832530311514373 L1.7567179054519086,-0.3034948547403661 L1.7599307011162542,-0.3247651937778685 L1.7598241029455512,-0.34652825154396294 L1.756400796132082,-0.3682358198061767 L1.749747013272276,-0.38934108810449947 L1.7400303621802578,-0.40931241782665356 L1.7274956038715956,-0.4276467341067455 L1.7124584870692272,-0.44388219820733615 L1.6952977945394494,-0.45760984116948533 L1.6764458016096022,-0.4684838656808309 L1.656377387215988,-0.4762303566591588 L1.6355980717731322,-0.4806541811331403 L1.6146312831887006,-0.481643903613254 L1.5940051717912942,-0.47917459313541877 " />
			<path d="M-1.5279350868456723,-0.4795721163167919 L-1.515571901006164,-0.4962659954798858 L-1.50604468365878,-0.5149694150535251 L-1.4995934240108517,-0.5352112386424539 L-1.4963806283465062,-0.5564815776799563 L-1.4964872265172091,-0.5782446354460508 L-1.4999105333306784,-0.5999522037082645 L-1.5065643161904843,-0.6210574720065872 L-1.5162809672825026,-0.6410288017287413 L-1.5288157255911647,-0.6593631180088333 L-1.5438528423935332,-0.6755985821094239 L-1.561013534923311,-0.6893262250715732 L-1.5798655278531581,-0.7002002495829187 L-1.5999339422467724,-0.7079467405612466 L-1.6207132576896282,-0.7123705650352281 L-1.6416800462740597,-0.7133602875153418 L-1.6623061576714662,-0.7108909770375066 " />
			<path d="M1.728376242617088,0.6725114517535168 L1.7407394284565965,0.655817572590423 L1.7502666458039804,0.6371141530167836 L1.7567179054519086,0.6168723294278549 L1.7599307011162542,0.5956019903903524 L1.7598241029455512,0.573838932624258 L1.756400796132082,0.5521313643620442 L1.749747013272276,0.5310260960637215 L1.7400303621802578,0.5110547663415674 L1.7274956038715956,0.4927204500614755 L1.7124584870692272,0.4764849859608848 L1.6952977945394494,0.4627573429987356 L1.6764458016096022,0.45188331848739005 L1.656377387215988,0.44413682750906214 L1.6355980717731322,0.43971300303508065 L1.6146312831887006,0.43872328055496695 L1.5940051717912942,0.4411925910328022 " />
			<path d="M-1.5279350868456723,0.44079506785142897 L-1.515571901006164,0.424101188688335 L-1.50604468365878,0.4053977691146958 L-1.4995934240108517,0.385155945525767 L-1.4963806283465062,0.3638856064882645 L-1.4964872265172091,0.3421225487221701 L-1.4999105333306784,0.3204149804599563 L-1.5065643161904845,0.29930971216163355 L-1.5162809672825028,0.27933838243947945 L-1.528815725591165,0.26100406615938754 L-1.5438528423935332,0.24476860205879686 L-1.561013534923311,0.2310409590966477 L-1.5798655278531584,0.22016693458530215 L-1.5999339422467727,0.21242044360697426 L-1.6207132576896284,0.20799661913299278 L-1.64168004627406,0.20700689665287916 L-1.6623061576714666,0.2094762071307144 " />
			<path d="M1.6989450414588314,-0.9943153706401171 L-1.5668048715675893,-1.2267033962346747 " />
			<path d="M1.5620855797857591,-0.3921079091116338 L1.5632569123892233,-0.37381353181062094 L1.5667501440681808,-0.3556767868061313 L1.5725033445835468,-0.33801921388068445 L1.5804145175273638,-0.3211538577485812 L1.5903434085801713,-0.3053797181995572 L1.6021139920290317,-0.2909764492398179 L1.6155175914636333,-0.27819940120746095 L1.6303165793247794,-0.2672750937588279 L1.6462485897173107,-0.2583971999835686 L1.6630311698000229,-0.25172311284458915 L1.6803667872897754,-0.2473711548152251 L1.6979481053035657,-0.24541848018297122 L1.7154634310227994,-0.24589970720906637 L1.7326022415823694,-0.2488063043938795 L1.7490606892180482,-0.25408674172877643 L1.7645469880734377,-0.2616474042529766 " />
			<path d="M1.7645469880734388,-0.26164740425297717 L1.785021455946712,-0.2766518287859347 L1.802006695746859,-0.2957318143471644 L1.8148499742337922,-0.31815412779172747 L1.8230577314178527,-0.34305709218852753 L1.8263145477934197,-0.3694837005815389 L1.8244952657336244,-0.39641839323043093 L1.817669799227759,-0.4228260850018563 L1.8061004471258788,-0.4476919431106433 L1.7902318131410915,-0.4700603865746052 L1.7706737199781997,-0.4890718086557895 L1.7481777741891484,-0.5039956110653445 L1.7236084823547395,-0.514258280446036 L1.6979100285815512,-0.5194654281689355 L1.6720699900362286,-0.5194169464672536 L1.6470813849088077,-0.5141146984655973 L1.6239045112805648,-0.5037624465811356 " />
			<path d="M1.6239045112805641,-0.5037624465811353 L1.6103821915654346,-0.49461978050843713 L1.5981935167729635,-0.483696957657754 L1.5875323642220178,-0.47116772026479253 L1.5785683139291122,-0.45723136275610465 L1.5714439512094327,-0.44210956170232296 L1.5662725986650041,-0.42604284975319495 L1.5631365136358002,-0.40928678964123577 L1.5620855797857591,-0.392107909111635 " />
			<path d="M-1.6942257496770012,-0.6238242930137217 L-1.693054417073537,-0.6055299157127088 L-1.6895611853945796,-0.5873931707082191 L-1.6838079848792136,-0.5697355977827723 L-1.6758968119353965,-0.552870241650669 L-1.665967920882589,-0.537096102101645 L-1.6541973374337287,-0.5226928331419057 L-1.640793737999127,-0.5099157851095488 L-1.625994750137981,-0.4989914776609157 L-1.6100627397454497,-0.4901135838856564 L-1.5932801596627375,-0.48343949674667697 L-1.575944542172985,-0.4790875387173129 L-1.5583632241591947,-0.477134864085059 L-1.540847898439961,-0.4776160911111542 L-1.523709087880391,-0.48052268829596734 L-1.5072506402447121,-0.48580312563086425 L-1.4917643413893227,-0.49336378815506443 " />
			<path d="M-1.4917643413893216,-0.493363788155065 L-1.4712898735160485,-0.5083682126880226 L-1.4543046337159014,-0.5274481982492523 L-1.4414613552289681,-0.5498705116938153 L-1.4332535980449077,-0.5747734760906154 L-1.4299967816693406,-0.6012000844836267 L-1.431816063729136,-0.6281347771325188 L-1.4386415302350013,-0.6545424689039441 L-1.4502108823368816,-0.6794083270127311 L-1.4660795163216689,-0.7017767704766931 L-1.4856376094845607,-0.7207881925578773 L-1.508133555273612,-0.7357119949674323 L-1.5327028471080208,-0.745974664348124 L-1.5584013008812092,-0.7511818120710232 L-1.5842413394265318,-0.7511333303693414 L-1.6092299445539526,-0.745831082367685 L-1.6324068181821956,-0.7354788304832234 " />
			<path d="M-1.6324068181821962,-0.7354788304832232 L-1.6459291378973258,-0.726336164410525 L-1.6581178126897969,-0.7154133415598418 L-1.6687789652407425,-0.7028841041668803 L-1.6777430155336481,-0.6889477466581925 L-1.6848673782533277,-0.6738259456044108 L-1.6900387307977562,-0.6577592336552828 L-1.6931748158269602,-0.6410031735433236 L-1.6942257496770012,-0.6238242930137229 " />
			<path d="M1.5620855797857591,0.5282592750565871 L1.5632569123892233,0.5465536523576 L1.5667501440681808,0.5646903973620897 L1.5725033445835468,0.5823479702875365 L1.5804145175273638,0.5992133264196398 L1.5903434085801713,0.6149874659686637 L1.6021139920290317,0.629390734928403 L1.6155175914636333,0.6421677829607599 L1.6303165793247794,0.6530920904093931 L1.6462485897173107,0.6619699841846524 L1.6630311698000229,0.6686440713236318 L1.6803667872897754,0.6729960293529959 L1.6979481053035657,0.6749487039852498 L1.7154634310227994,0.6744674769591545 L1.7326022415823694,0.6715608797743414 L1.7490606892180482,0.6662804424394445 L1.7645469880734377,0.6587197799152443 " />
			<path d="M1.7645469880734388,0.6587197799152438 L1.785021455946712,0.6437153553822862 L1.802006695746859,0.6246353698210565 L1.8148499742337922,0.6022130563764935 L1.8230577314178527,0.5773100919796934 L1.8263145477934197,0.550883483586682 L1.8244952657336244,0.52394879093779 L1.817669799227759,0.49754109916636463 L1.8061004471258788,0.47267524105757763 L1.7902318131410915,0.45030679759361575 L1.7706737199781997,0.43129537551243147 L1.7481777741891484,0.4163715731028764 L1.7236084823547395,0.40610890372218483 L1.6979100285815512,0.4009017559992855 L1.6720699900362286,0.4009502377009674 L1.6470813849088077,0.4062524857026237 L1.6239045112805648,0.4166047375870853 " />
			<path d="M1.6239045112805641,0.4166047375870856 L1.6103821915654346,0.4257474036597838 L1.5981935167729635,0.43667022651046694 L1.5875323642220178,0.4491994639034284 L1.5785683139291122,0.4631358214121163 L1.5714439512094327,0.478257622465898 L1.5662725986650041,0.494324334415026 L1.5631365136358002,0.5110803945269852 L1.5620855797857591,0.5282592750565859 " />
			<path d="M-1.6942257496770012,0.29654289115449933 L-1.693054417073537,0.3148372684555122 L-1.6895611853945796,0.3329740134600018 L-1.6838079848792136,0.35063158638544867 L-1.6758968119353965,0.36749694251755194 L-1.665967920882589,0.3832710820665759 L-1.6541973374337287,0.3976743510263152 L-1.640793737999127,0.4104513990586722 L-1.625994750137981,0.4213757065073052 L-1.6100627397454497,0.43025360028256454 L-1.5932801596627375,0.436927687421544 L-1.575944542172985,0.44127964545090803 L-1.5583632241591947,0.44323232008316193 L-1.540847898439961,0.4427510930570667 L-1.523709087880391,0.4398444958722536 L-1.5072506402447121,0.4345640585373567 L-1.4917643413893227,0.4270033960131565 " />
			<path d="M-1.4917643413893216,0.42700339601315596 L-1.4712898735160485,0.41199897148019843 L-1.4543046337159014,0.39291898591896873 L-1.4414613552289681,0.37049667247440565 L-1.4332535980449077,0.3455937080776056 L-1.4299967816693406,0.3191670996845942 L-1.431816063729136,0.2922324070357022 L-1.4386415302350013,0.2658247152642768 L-1.4502108823368816,0.24095885715548981 L-1.4660795163216689,0.21859041369152793 L-1.4856376094845607,0.19957899161034365 L-1.508133555273612,0.18465518920078858 L-1.5327028471080208,0.17439251982009701 L-1.5584013008812092,0.1691853720971977 L-1.5842413394265318,0.16923385379887956 L-1.6092299445539526,0.17453610180053586 L-1.6324068181821956,0.1848883536849975 " />
			<path d="M-1.6324068181821962,0.18488835368499779 L-1.6459291378973258,0.194031019757696 L-1.6581178126897969,0.20495384260837915 L-1.6687789652407425,0.2174830800013406 L-1.6777430155336481,0.2314194375100285 L-1.6848673782533277,0.24654123856381013 L-1.6900387307977562,0.26260795051293817 L-1.6931748158269602,0.27936401062489735 L-1.6942257496770012,0.2965428911544981 " />
			<path d="M-1.5881396700137154,-1.214628836796686 L-1.6542097549593366,-1.1762493115126962 " />
			<path d="M1.720279839904958,1.1378697862287064 L1.6542097549593366,1.1762493115126962 " />

       </g>
    </g>
    <g transform="translate(20,210.0)" stroke="rgb(0,0,255)">
        <line x1="30" y1="-30" x2="75" y2="-33" stroke-width="3" stroke="#000000" />
         <text x="80" y="-30" style="stroke:#000000">X </text>

        <line x1="30" y1="-30" x2="30" y2="-75" stroke-width="3" stroke="#000000" />
         <text x="25" y="-85" style="stroke:#000000">Y </text>

        <line x1="30" y1="-30" x2="58" y2="-15" stroke-width="3" stroke="#000000" />
         <text x="65" y="-5" style="stroke:#000000">Z </text>
        <!--
            <line x1="0" y1="0" x2="74.5333199528569" y2="0" stroke-width="3" />
            <text x="0" y="20" style="stroke:#000000">1  in </text>
        -->
    </g>
</svg>
