<?xml version="1.0" encoding="UTF-8" standalone="no"?>
<svg
   xmlns:svg="http://www.w3.org/2000/svg"
   xmlns="http://www.w3.org/2000/svg"
   width="800.0"
   height="240.0"

>
    <g transform="scale(74.44536923985574, -74.44536923985574)   translate(4.9046009278376115,-1.458403822065614)" stroke-width="0.013432668951887354"  fill="none">
       <!-- hidden lines -->
       <g  stroke="rgb(160,160,160)" fill="none" stroke-dasharray="0.013432668951887354,0.013432668951887354" >
			<path d="M-1.6328749565132101,-1.1883238709506851 L1.6328749565132106,-0.9559358453561275 " />
			<path d="M1.6328749565132101,-0.9559358453561275 L1.690233820632847,-0.948931121653976 L1.7470402875354674,-0.9361476272206719 L1.802747279891225,-0.9177084740957773 L1.8568183089111945,-0.8937912414037508 L1.9087326410276821,-0.8646262651699066 L1.957990312843146,-0.830494420058574 L2.00411694605102,-0.7917244143965398 L2.0466683159581303,-0.74868962453217 L2.085234629611326,-0.701804499017068 L2.1194444723276358,-0.6515205672399609 L2.148968384620699,-0.5983220909518552 L2.173522035075721,-0.5427214005606508 L2.1928689586164296,-0.4852539611092441 L2.206822833793024,-0.42647321545445016 L2.215249277159588,-0.3669452543097489 L2.218067137460141,-0.30724336448225986 " />
			<path d="M2.218067137460141,-0.3072433644822571 L2.218067137460141,0.6229149599430726 " />
			<path d="M2.218067137460141,0.6229149599430724 L2.2169024445255543,0.6611128124625028 L2.213413001838529,0.6989928594313171 L2.207612699294985,0.7364043174846562 L2.1995246252806226,0.7731982684985729 L2.1891809747664803,0.8092282523658527 L2.176622921155292,0.8443508499875747 L2.1619004523887617,0.8784262541597934 L2.145072171968133,0.9113188260828985 L2.126205065680111,0.9428976352784366 L2.1053742349566873,0.9730369807642342 L2.0826625979302467,1.0016168914132553 L2.058160559373918,1.0285236035044938 L2.0319656508409882,1.0536500135649853 L2.004182142435822,1.0768961047003764 L1.9749206277616533,1.0981693447170269 L1.944297583697383,1.1173850544508936 " />
			<path d="M-1.63287495651321,-1.188323870950685 L-1.673889857511051,-1.1897496088679729 L-1.7147030323093841,-1.1881826383913339 L-1.755113746871515,-1.183630666451451 L-1.7949232466065583,-1.176116081301798 L-1.8339357339167999,-1.1656758424050628 L-1.8719593312014902,-1.1523612986530725 L-1.908807024580667,-1.1362379358142647 L-1.9442975836974297,-1.1173850544508666 " />
			<path d="M-1.7602958346226227,-0.585444767729732 L-1.7591245020191584,-0.5671503904287191 L-1.7556312703402008,-0.5490136454242294 L-1.7498780698248346,-0.5313560724987826 L-1.7419668968810178,-0.5144907163666793 L-1.7320380058282103,-0.49871657681765535 L-1.72026742237935,-0.48431330785791604 L-1.7068638229447484,-0.4715362598255591 L-1.6920648350836023,-0.46061195237692604 L-1.676132824691071,-0.4517340586016667 L-1.6593502446083588,-0.4450599714626873 L-1.6420146271186062,-0.4407080134333232 L-1.624433309104816,-0.4387553388010693 L-1.6069179833855822,-0.4392365658271645 L-1.5897791728260122,-0.44214316301197765 L-1.5733207251903334,-0.44742360034687456 L-1.557834426334944,-0.45498426287107474 " />
			<path d="M-1.5578344263349428,-0.4549842628710753 L-1.5419179786864137,-0.46604505812921554 L-1.5279350868456723,-0.47957211631679186 " />
			<path d="M-1.6623061576714668,-0.7108909770375065 L-1.6809837661553033,-0.7054458407890294 L-1.6984769031278169,-0.6970993051992337 " />
			<path d="M-1.6984769031278173,-0.6970993051992335 L-1.711999222842947,-0.6879566391265353 L-1.7241878976354181,-0.6770338162758521 L-1.734849050186364,-0.6645045788828906 L-1.7438131004792692,-0.6505682213742028 L-1.750937463198949,-0.6354464203204211 L-1.7561088157433775,-0.6193797083712931 L-1.7592449007725814,-0.6026236482593339 L-1.7602958346226227,-0.5854447677297332 " />
			<path d="M1.4960154948401376,-0.3537283838276441 L1.497186827443602,-0.33543400652663125 L1.5006800591225595,-0.3172972615221416 L1.5064332596379257,-0.29963968859669476 L1.5143444325817426,-0.2827743324645915 L1.52427332363455,-0.26700019291556754 L1.5360439070834104,-0.2525969239558282 L1.549447506518012,-0.23981987592347126 L1.564246494379158,-0.22889556847483822 L1.5801785047716894,-0.2200176746995789 L1.5969610848544016,-0.21334358756059946 L1.6142967023441541,-0.2089916295312354 L1.6318780203579444,-0.20703895489898153 L1.6493933460771781,-0.20752018192507668 L1.6665321566367481,-0.2104267791098898 L1.682990604272427,-0.21570721644478674 L1.6984769031278164,-0.22326787896898692 " />
			<path d="M1.6984769031278175,-0.2232678789689875 L1.7143933507763467,-0.23432867422712772 L1.728376242617088,-0.2478557324147041 " />
			<path d="M1.5940051717912935,-0.47917459313541866 L1.575327563307457,-0.4737294568869416 L1.5578344263349435,-0.4653829212971459 " />
			<path d="M1.557834426334943,-0.46538292129714565 L1.5443121066198133,-0.45624025522444744 L1.5321234318273422,-0.4453174323737643 L1.5214622792763963,-0.43278819498080284 L1.5124982289834912,-0.41885183747211496 L1.5053738662638114,-0.40373003641833327 L1.5002025137193828,-0.38766332446920526 L1.497066428690179,-0.3709072643572461 L1.4960154948401376,-0.3537283838276453 " />
			<path d="M-1.7602958346226227,0.334922416438489 L-1.7591245020191584,0.3532167937395019 L-1.7556312703402008,0.3713535387439915 L-1.7498780698248346,0.38901111166943836 L-1.7419668968810178,0.40587646780154163 L-1.7320380058282103,0.4216506073505656 L-1.72026742237935,0.4360538763103049 L-1.7068638229447484,0.44883092434266186 L-1.6920648350836023,0.4597552317912949 L-1.676132824691071,0.46863312556655423 L-1.6593502446083588,0.47530721270553367 L-1.6420146271186062,0.4796591707348977 L-1.624433309104816,0.4816118453671516 L-1.6069179833855822,0.4811306183410564 L-1.5897791728260122,0.4782240211562433 L-1.5733207251903334,0.4729435838213464 L-1.557834426334944,0.4653829212971462 " />
			<path d="M-1.5578344263349428,0.46538292129714565 L-1.5419179786864137,0.4543221260390054 L-1.5279350868456723,0.440795067851429 " />
			<path d="M-1.662306157671467,0.20947620713071452 L-1.6809837661553033,0.21492134337919153 L-1.6984769031278169,0.2232678789689872 " />
			<path d="M-1.6984769031278173,0.22326787896898748 L-1.711999222842947,0.23241054504168568 L-1.7241878976354181,0.24333336789236884 L-1.734849050186364,0.2558626052853303 L-1.7438131004792692,0.26979896279401816 L-1.750937463198949,0.28492076384779985 L-1.7561088157433775,0.30098747579692786 L-1.7592449007725814,0.31774353590888704 L-1.7602958346226227,0.3349224164384878 " />
			<path d="M1.4960154948401376,0.5666388003405768 L1.497186827443602,0.5849331776415897 L1.5006800591225595,0.6030699226460794 L1.5064332596379257,0.6207274955715262 L1.5143444325817426,0.6375928517036294 L1.52427332363455,0.6533669912526534 L1.5360439070834104,0.6677702602123927 L1.549447506518012,0.6805473082447497 L1.564246494379158,0.6914716156933828 L1.5801785047716894,0.700349509468642 L1.5969610848544016,0.7070235966076215 L1.6142967023441541,0.7113755546369855 L1.6318780203579444,0.7133282292692394 L1.6493933460771781,0.7128470022431442 L1.6665321566367481,0.7099404050583311 L1.682990604272427,0.7046599677234342 L1.6984769031278164,0.697099305199234 " />
			<path d="M1.6984769031278175,0.6970993051992335 L1.7143933507763467,0.6860385099410933 L1.728376242617088,0.6725114517535169 " />
			<path d="M1.5940051717912935,0.4411925910328023 L1.575327563307457,0.4466377272812793 L1.5578344263349435,0.454984262871075 " />
			<path d="M1.557834426334943,0.4549842628710753 L1.5443121066198133,0.4641269289437735 L1.5321234318273422,0.47504975179445663 L1.5214622792763963,0.4875789891874181 L1.5124982289834912,0.501515346696106 L1.5053738662638114,0.5166371477498877 L1.5002025137193828,0.5327038596990157 L1.497066428690179,0.5494599198109749 L1.4960154948401376,0.5666388003405756 " />
			<path d="M-1.4917643413893218,-0.493363788155065 L-1.557834426334943,-0.4549842628710753 " />
			<path d="M-1.632406818182196,-0.735478830483223 L-1.6984769031278173,-0.6970993051992334 " />
			<path d="M1.7645469880734386,-0.26164740425297717 L1.6984769031278173,-0.22326787896898748 " />
			<path d="M1.6239045112805643,-0.5037624465811352 L1.557834426334943,-0.46538292129714554 " />
			<path d="M-1.4917643413893218,0.42700339601315584 L-1.557834426334943,0.46538292129714554 " />
			<path d="M-1.632406818182196,0.1848883536849978 L-1.6984769031278173,0.2232678789689875 " />
			<path d="M1.7645469880734386,0.6587197799152437 L1.6984769031278173,0.6970993051992334 " />
			<path d="M1.6239045112805643,0.4166047375870856 L1.557834426334943,0.4549842628710753 " />

       </g>

       <!-- solid lines -->
       <g  stroke="rgb(0,0,0)" fill="none">
			<path d="M-1.566804871567589,-1.2267033962346747 L1.6989450414588316,-0.9943153706401171 " />
			<path d="M1.9442975836973808,1.117385054450895 L1.9088070245806206,1.1362379358142871 L1.8719593312014489,1.1523612986530887 L1.8339357339167646,1.165675842405074 L1.7949232466065295,1.1761160813018043 L1.7551137468714932,1.1836306664514544 L1.7147030323093695,1.1881826383913348 L1.6738898575110437,1.1897496088679729 L1.6328749565132126,1.1883238709506854 " />
			<path d="M1.6328749565132101,1.1883238709506851 L-1.6328749565132106,0.9559358453561275 " />
			<path d="M-1.6328749565132104,0.9559358453561275 L-1.690233820632847,0.948931121653976 L-1.7470402875354674,0.9361476272206719 L-1.802747279891225,0.9177084740957773 L-1.8568183089111943,0.893791241403751 L-1.9087326410276817,0.8646262651699068 L-1.9579903128431457,0.8304944200585742 L-2.0041169460510204,0.7917244143965396 L-2.0466683159581303,0.7486896245321701 L-2.085234629611326,0.7018044990170682 L-2.1194444723276358,0.6515205672399608 L-2.148968384620699,0.5983220909518547 L-2.173522035075721,0.5427214005606507 L-2.1928689586164296,0.4852539611092441 L-2.206822833793024,0.4264732154544504 L-2.215249277159588,0.3669452543097492 L-2.218067137460141,0.3072433644822625 " />
			<path d="M-2.218067137460141,0.3072433644822571 L-2.218067137460141,-0.6229149599430726 " />
			<path d="M-1.9442975836974319,-1.1173850544508652 L-1.9749206277616993,-1.0981693447169958 L-2.004182142435863,-1.076896104700345 L-2.031965650841024,-1.0536500135649531 L-2.0581605593739494,-1.028523603504462 L-2.0826625979302733,-1.0016168914132242 L-2.1053742349567095,-0.9730369807642043 L-2.126205065680129,-0.9428976352784083 L-2.145072171968147,-0.9113188260828722 L-2.161900452388773,-0.8784262541597696 L-2.1766229211553005,-0.8443508499875534 L-2.1891809747664857,-0.8092282523658347 L-2.1995246252806266,-0.7731982684985581 L-2.2076126992949874,-0.7364043174846447 L-2.21341300183853,-0.6989928594313098 L-2.2169024445255543,-0.6611128124624994 L-2.218067137460141,-0.6229149599430781 " />
			<path d="M-1.5279350868456723,-0.4795721163167919 L-1.515571901006164,-0.4962659954798858 L-1.50604468365878,-0.5149694150535251 L-1.4995934240108517,-0.5352112386424539 L-1.4963806283465062,-0.5564815776799563 L-1.4964872265172091,-0.5782446354460508 L-1.4999105333306784,-0.5999522037082645 L-1.5065643161904843,-0.6210574720065872 L-1.5162809672825026,-0.6410288017287413 L-1.5288157255911647,-0.6593631180088333 L-1.5438528423935332,-0.6755985821094239 L-1.561013534923311,-0.6893262250715732 L-1.5798655278531581,-0.7002002495829187 L-1.5999339422467724,-0.7079467405612466 L-1.6207132576896282,-0.7123705650352281 L-1.6416800462740597,-0.7133602875153418 L-1.6623061576714662,-0.7108909770375066 " />
			<path d="M1.728376242617088,-0.24785573241470416 L1.7407394284565965,-0.26454961157779805 L1.7502666458039804,-0.2832530311514373 L1.7567179054519086,-0.3034948547403661 L1.7599307011162542,-0.3247651937778685 L1.7598241029455512,-0.34652825154396294 L1.756400796132082,-0.3682358198061767 L1.749747013272276,-0.38934108810449947 L1.7400303621802578,-0.40931241782665356 L1.7274956038715956,-0.4276467341067455 L1.7124584870692272,-0.44388219820733615 L1.6952977945394494,-0.45760984116948533 L1.6764458016096022,-0.4684838656808309 L1.656377387215988,-0.4762303566591588 L1.6355980717731322,-0.4806541811331403 L1.6146312831887006,-0.481643903613254 L1.5940051717912942,-0.47917459313541877 " />
			<path d="M-1.5279350868456723,0.44079506785142897 L-1.515571901006164,0.424101188688335 L-1.50604468365878,0.4053977691146958 L-1.4995934240108517,0.385155945525767 L-1.4963806283465062,0.3638856064882645 L-1.4964872265172091,0.3421225487221701 L-1.4999105333306784,0.3204149804599563 L-1.5065643161904845,0.29930971216163355 L-1.5162809672825028,0.27933838243947945 L-1.528815725591165,0.26100406615938754 L-1.5438528423935332,0.24476860205879686 L-1.561013534923311,0.2310409590966477 L-1.5798655278531584,0.22016693458530215 L-1.5999339422467727,0.21242044360697426 L-1.6207132576896284,0.20799661913299278 L-1.64168004627406,0.20700689665287916 L-1.6623061576714666,0.2094762071307144 " />
			<path d="M1.728376242617088,0.6725114517535168 L1.7407394284565965,0.655817572590423 L1.7502666458039804,0.6371141530167836 L1.7567179054519086,0.6168723294278549 L1.7599307011162542,0.5956019903903524 L1.7598241029455512,0.573838932624258 L1.756400796132082,0.5521313643620442 L1.749747013272276,0.5310260960637215 L1.7400303621802578,0.5110547663415674 L1.7274956038715956,0.4927204500614755 L1.7124584870692272,0.4764849859608848 L1.6952977945394494,0.4627573429987356 L1.6764458016096022,0.45188331848739005 L1.656377387215988,0.44413682750906214 L1.6355980717731322,0.43971300303508065 L1.6146312831887006,0.43872328055496695 L1.5940051717912942,0.4411925910328022 " />
			<path d="M-1.5668048715675886,-1.2267033962346747 L-1.6078197725654297,-1.2281291341519627 L-1.6486329473637629,-1.2265621636753234 L-1.6890436619258937,-1.222010191735441 L-1.728853161660937,-1.2144956065857877 L-1.7678656489711786,-1.2040553676890526 L-1.8058892462558687,-1.190740823937062 L-1.8427369396350457,-1.1746174610982543 L-1.8782274987518084,-1.1557645797348561 " />
			<path d="M-1.8782274987518106,-1.1557645797348548 L-1.908850542816078,-1.1365488700009854 L-1.9381120574902417,-1.1152756299843345 L-1.9658955658954027,-1.092029538848943 L-1.9920904744283279,-1.0669031287884518 L-2.016592512984652,-1.039996416697214 L-2.039304150011088,-1.011416506048194 L-2.060134980734508,-0.981277160562398 L-2.079002087022526,-0.949698351366862 L-2.0958303674431518,-0.9168057794437592 L-2.110552836209679,-0.8827303752715431 L-2.1231108898208646,-0.8476077776498244 L-2.133454540335005,-0.8115777937825479 L-2.1415426143493663,-0.7747838427686344 L-2.1473429168929083,-0.7373723847152995 L-2.1508323595799332,-0.6994923377464892 L-2.1519970525145196,-0.6612944852270677 " />
			<path d="M1.6989450414588316,-0.9943153706401171 L1.7563039055784684,-0.9873106469379656 L1.8131103724810886,-0.9745271525046615 L1.8688173648368462,-0.9560879993797669 L1.9228883938568158,-0.9321707666877406 L1.9748027259733036,-0.9030057904538964 L2.0240603977887672,-0.8688739453425637 L2.0701870309966415,-0.8301039396805294 L2.1127384009037513,-0.7870691498161597 L2.1513047145569475,-0.7401840243010577 L2.1855145572732573,-0.6899000925239505 L2.21503846956632,-0.6367016162358449 L2.2395921200213422,-0.5811009258446405 L2.258939043562051,-0.5236334863932338 L2.272892918738645,-0.46485274073843985 L2.2813193621052097,-0.4053247795937386 L2.2841372224057626,-0.34562288976624955 " />
			<path d="M2.284137222405762,-0.3456228897662468 L2.284137222405762,0.5845354346590829 " />
			<path d="M2.2841372224057626,0.5845354346590828 L2.2829725294711753,0.6227332871785131 L2.27948308678415,0.6606133341473274 L2.2736827842406067,0.6980247922006665 L2.265594710226244,0.7348187432145832 L2.2552510597121014,0.7708487270818629 L2.242693006100913,0.805971324703585 L2.2279705373343828,0.8400467288758037 L2.211142256913754,0.8729393007989088 L2.1922751506257323,0.9045181099944469 L2.1714443199023084,0.9346574554802445 L2.1487326828758677,0.9632373661292656 L2.1242306443195393,0.9901440782205042 L2.0980357357866097,1.0152704882809955 L2.0702522273814434,1.0385165794163869 L2.0409907127072744,1.0597898194330373 L2.010367668643004,1.079005529166904 " />
			<path d="M2.010367668643002,1.0790055291669052 L1.9748771095262418,1.0978584105302973 L1.9380294161470704,1.1139817733690989 L1.9000058188623858,1.1272963171210844 L1.8609933315521507,1.1377365560178148 L1.8211838318171143,1.1452511411674648 L1.7807731172549908,1.1498031131073452 L1.739959942456665,1.1513700835839833 L1.6989450414588338,1.1499443456666956 " />
			<path d="M1.6989450414588312,1.1499443456666956 L-1.5668048715675895,0.9175563200721379 " />
			<path d="M-1.566804871567589,0.9175563200721379 L-1.6241637356872258,0.9105515963699862 L-1.680970202589846,0.8977681019366823 L-1.7366771949456037,0.8793289488117875 L-1.790748223965573,0.8554117161197614 L-1.8426625560820606,0.8262467398859172 L-1.8919202278975245,0.7921148947745844 L-1.938046861105399,0.75334488911255 L-1.980598231012509,0.7103100992481803 L-2.0191645446657045,0.6634249737330786 L-2.0533743873820147,0.6131410419559711 L-2.082898299675078,0.559942565667865 L-2.1074519501301,0.5043418752766609 L-2.1267988736708086,0.44687443582525443 L-2.1407527488474027,0.3880936901704607 L-2.149179192213967,0.32856572902575953 L-2.1519970525145196,0.26886383919827284 " />
			<path d="M-2.15199705251452,0.2688638391982674 L-2.15199705251452,-0.6612944852270622 " />
			<path d="M-1.6942257496770012,-0.6238242930137217 L-1.693054417073537,-0.6055299157127088 L-1.6895611853945796,-0.5873931707082191 L-1.6838079848792136,-0.5697355977827723 L-1.6758968119353965,-0.552870241650669 L-1.665967920882589,-0.537096102101645 L-1.6541973374337287,-0.5226928331419057 L-1.640793737999127,-0.5099157851095488 L-1.625994750137981,-0.4989914776609157 L-1.6100627397454497,-0.4901135838856564 L-1.5932801596627375,-0.48343949674667697 L-1.575944542172985,-0.4790875387173129 L-1.5583632241591947,-0.477134864085059 L-1.540847898439961,-0.4776160911111542 L-1.523709087880391,-0.48052268829596734 L-1.5072506402447121,-0.48580312563086425 L-1.4917643413893227,-0.49336378815506443 " />
			<path d="M-1.4917643413893216,-0.493363788155065 L-1.4712898735160485,-0.5083682126880226 L-1.4543046337159014,-0.5274481982492523 L-1.4414613552289681,-0.5498705116938153 L-1.4332535980449077,-0.5747734760906154 L-1.4299967816693406,-0.6012000844836267 L-1.431816063729136,-0.6281347771325188 L-1.4386415302350013,-0.6545424689039441 L-1.4502108823368816,-0.6794083270127311 L-1.4660795163216689,-0.7017767704766931 L-1.4856376094845607,-0.7207881925578773 L-1.508133555273612,-0.7357119949674323 L-1.5327028471080208,-0.745974664348124 L-1.5584013008812092,-0.7511818120710232 L-1.5842413394265318,-0.7511333303693414 L-1.6092299445539526,-0.745831082367685 L-1.6324068181821956,-0.7354788304832234 " />
			<path d="M-1.6324068181821962,-0.7354788304832232 L-1.6459291378973258,-0.726336164410525 L-1.6581178126897969,-0.7154133415598418 L-1.6687789652407425,-0.7028841041668803 L-1.6777430155336481,-0.6889477466581925 L-1.6848673782533277,-0.6738259456044108 L-1.6900387307977562,-0.6577592336552828 L-1.6931748158269602,-0.6410031735433236 L-1.6942257496770012,-0.6238242930137229 " />
			<path d="M1.5620855797857591,-0.3921079091116338 L1.5632569123892233,-0.37381353181062094 L1.5667501440681808,-0.3556767868061313 L1.5725033445835468,-0.33801921388068445 L1.5804145175273638,-0.3211538577485812 L1.5903434085801713,-0.3053797181995572 L1.6021139920290317,-0.2909764492398179 L1.6155175914636333,-0.27819940120746095 L1.6303165793247794,-0.2672750937588279 L1.6462485897173107,-0.2583971999835686 L1.6630311698000229,-0.25172311284458915 L1.6803667872897754,-0.2473711548152251 L1.6979481053035657,-0.24541848018297122 L1.7154634310227994,-0.24589970720906637 L1.7326022415823694,-0.2488063043938795 L1.7490606892180482,-0.25408674172877643 L1.7645469880734377,-0.2616474042529766 " />
			<path d="M1.7645469880734388,-0.26164740425297717 L1.785021455946712,-0.2766518287859347 L1.802006695746859,-0.2957318143471644 L1.8148499742337922,-0.31815412779172747 L1.8230577314178527,-0.34305709218852753 L1.8263145477934197,-0.3694837005815389 L1.8244952657336244,-0.39641839323043093 L1.817669799227759,-0.4228260850018563 L1.8061004471258788,-0.4476919431106433 L1.7902318131410915,-0.4700603865746052 L1.7706737199781997,-0.4890718086557895 L1.7481777741891484,-0.5039956110653445 L1.7236084823547395,-0.514258280446036 L1.6979100285815512,-0.5194654281689355 L1.6720699900362286,-0.5194169464672536 L1.6470813849088077,-0.5141146984655973 L1.6239045112805648,-0.5037624465811356 " />
			<path d="M1.6239045112805641,-0.5037624465811353 L1.6103821915654346,-0.49461978050843713 L1.5981935167729635,-0.483696957657754 L1.5875323642220178,-0.47116772026479253 L1.5785683139291122,-0.45723136275610465 L1.5714439512094327,-0.44210956170232296 L1.5662725986650041,-0.42604284975319495 L1.5631365136358002,-0.40928678964123577 L1.5620855797857591,-0.392107909111635 " />
			<path d="M-1.6942257496770012,0.29654289115449933 L-1.693054417073537,0.3148372684555122 L-1.6895611853945796,0.3329740134600018 L-1.6838079848792136,0.35063158638544867 L-1.6758968119353965,0.36749694251755194 L-1.665967920882589,0.3832710820665759 L-1.6541973374337287,0.3976743510263152 L-1.640793737999127,0.4104513990586722 L-1.625994750137981,0.4213757065073052 L-1.6100627397454497,0.43025360028256454 L-1.5932801596627375,0.436927687421544 L-1.575944542172985,0.44127964545090803 L-1.5583632241591947,0.44323232008316193 L-1.540847898439961,0.4427510930570667 L-1.523709087880391,0.4398444958722536 L-1.5072506402447121,0.4345640585373567 L-1.4917643413893227,0.4270033960131565 " />
			<path d="M-1.4917643413893216,0.42700339601315596 L-1.4712898735160485,0.41199897148019843 L-1.4543046337159014,0.39291898591896873 L-1.4414613552289681,0.37049667247440565 L-1.4332535980449077,0.3455937080776056 L-1.4299967816693406,0.3191670996845942 L-1.431816063729136,0.2922324070357022 L-1.4386415302350013,0.2658247152642768 L-1.4502108823368816,0.24095885715548981 L-1.4660795163216689,0.21859041369152793 L-1.4856376094845607,0.19957899161034365 L-1.508133555273612,0.18465518920078858 L-1.5327028471080208,0.17439251982009701 L-1.5584013008812092,0.1691853720971977 L-1.5842413394265318,0.16923385379887956 L-1.6092299445539526,0.17453610180053586 L-1.6324068181821956,0.1848883536849975 " />
			<path d="M-1.6324068181821962,0.18488835368499779 L-1.6459291378973258,0.194031019757696 L-1.6581178126897969,0.20495384260837915 L-1.6687789652407425,0.2174830800013406 L-1.6777430155336481,0.2314194375100285 L-1.6848673782533277,0.24654123856381013 L-1.6900387307977562,0.26260795051293817 L-1.6931748158269602,0.27936401062489735 L-1.6942257496770012,0.2965428911544981 " />
			<path d="M1.5620855797857591,0.5282592750565871 L1.5632569123892233,0.5465536523576 L1.5667501440681808,0.5646903973620897 L1.5725033445835468,0.5823479702875365 L1.5804145175273638,0.5992133264196398 L1.5903434085801713,0.6149874659686637 L1.6021139920290317,0.629390734928403 L1.6155175914636333,0.6421677829607599 L1.6303165793247794,0.6530920904093931 L1.6462485897173107,0.6619699841846524 L1.6630311698000229,0.6686440713236318 L1.6803667872897754,0.6729960293529959 L1.6979481053035657,0.6749487039852498 L1.7154634310227994,0.6744674769591545 L1.7326022415823694,0.6715608797743414 L1.7490606892180482,0.6662804424394445 L1.7645469880734377,0.6587197799152443 " />
			<path d="M1.7645469880734388,0.6587197799152438 L1.785021455946712,0.6437153553822862 L1.802006695746859,0.6246353698210565 L1.8148499742337922,0.6022130563764935 L1.8230577314178527,0.5773100919796934 L1.8263145477934197,0.550883483586682 L1.8244952657336244,0.52394879093779 L1.817669799227759,0.49754109916636463 L1.8061004471258788,0.47267524105757763 L1.7902318131410915,0.45030679759361575 L1.7706737199781997,0.43129537551243147 L1.7481777741891484,0.4163715731028764 L1.7236084823547395,0.40610890372218483 L1.6979100285815512,0.4009017559992855 L1.6720699900362286,0.4009502377009674 L1.6470813849088077,0.4062524857026237 L1.6239045112805648,0.4166047375870853 " />
			<path d="M1.6239045112805641,0.4166047375870856 L1.6103821915654346,0.4257474036597838 L1.5981935167729635,0.43667022651046694 L1.5875323642220178,0.4491994639034284 L1.5785683139291122,0.4631358214121163 L1.5714439512094327,0.478257622465898 L1.5662725986650041,0.494324334415026 L1.5631365136358002,0.5110803945269852 L1.5620855797857591,0.5282592750565859 " />
			<path d="M-2.218067137460141,-0.6229149599430724 L-2.15199705251452,-0.6612944852270621 " />
			<path d="M-2.218067137460141,0.3072433644822572 L-2.15199705251452,0.2688638391982675 " />
			<path d="M-1.6328749565132101,0.9559358453561274 L-1.5668048715675889,0.9175563200721377 " />
			<path d="M1.6328749565132101,1.188323870950685 L1.6989450414588314,1.1499443456666951 " />
			<path d="M-1.944297583697432,-1.117385054450865 L-1.8782274987518108,-1.1557645797348548 " />
			<path d="M1.944297583697432,1.117385054450865 L2.0103676686430534,1.0790055291668752 " />

       </g>
    </g>
    <g transform="translate(20,210.0)" stroke="rgb(0,0,255)">
        <line x1="30" y1="-30" x2="75" y2="-33" stroke-width="3" stroke="#000000" />
         <text x="80" y="-30" style="stroke:#000000">X </text>

        <line x1="30" y1="-30" x2="30" y2="-75" stroke-width="3" stroke="#000000" />
         <text x="25" y="-85" style="stroke:#000000">Y </text>

        <line x1="30" y1="-30" x2="58" y2="-15" stroke-width="3" stroke="#000000" />
         <text x="65" y="-5" style="stroke:#000000">Z </text>
        <!--
            <line x1="0" y1="0" x2="74.44536923985574" y2="0" stroke-width="3" />
            <text x="0" y="20" style="stroke:#000000">1  in </text>
        -->
    </g>
</svg>
